PathFileType	4	(x/y/z)	S02_P20_T17
DataRate	CameraRate	NumFrames	NumMarkers	Units	OrigDataRate	OrigDataStartFrame	OrigNumFrames
240	240	9	51	mm	240	171	341
Frame#	Time	Sternum			R.Acromium			L.Acromium			Top.Head			R.ASIS			L.ASIS			R.PSIS			L.PSIS			R.Great.Tro			L.Great.Tro			R.Iliac.Crest			L.Iliac.Crest			V.Sacral			R.Thigh.Upper.Post			R.Thigh.Lower.Ant			R.Thigh.Lower.Post			R.Thigh.Upper.Ant			R.Knee.Lat			R.Knee.Med			R.Shank.Upper.Post			R.Shank.Lower.Ant			R.Shank.Lower.Post			R.Shank.Upper.Ant			R.Ankle.Lat			R.Ankle.Med			R.Heel.Upper			R.Heel.Med			R.Heel.Lat			R.Toe.Lat			R.Toe.Med			R.Toe.Tip			L.Thigh.Upper.Post			L.Thigh.Lower.Ant			L.Thigh.Lower.Post			L.Thigh.Upper.Ant			L.Knee.Lat			L.Knee.Med			L.Shank.Upper.Post			L.Shank.Lower.Ant			L.Shank.Lower.Post			L.Shank.Upper.Ant			L.Ankle.Lat			L.Ankle.Med			L.Heel.Upper			L.Heel.Med			L.Heel.Lat			L.Toe.Lat			L.Toe.Med			L.Toe.Tip			Cervical.Spine			Back			
		X1	Y1	Z1	X2	Y2	Z2	X3	Y3	Z3	X4	Y4	Z4	X5	Y5	Z5	X6	Y6	Z6	X7	Y7	Z7	X8	Y8	Z8	X9	Y9	Z9	X10	Y10	Z10	X11	Y11	Z11	X12	Y12	Z12	X13	Y13	Z13	X14	Y14	Z14	X15	Y15	Z15	X16	Y16	Z16	X17	Y17	Z17	X18	Y18	Z18	X19	Y19	Z19	X20	Y20	Z20	X21	Y21	Z21	X22	Y22	Z22	X23	Y23	Z23	X24	Y24	Z24	X25	Y25	Z25	X26	Y26	Z26	X27	Y27	Z27	X28	Y28	Z28	X29	Y29	Z29	X30	Y30	Z30	X31	Y31	Z31	X32	Y32	Z32	X33	Y33	Z33	X34	Y34	Z34	X35	Y35	Z35	X36	Y36	Z36	X37	Y37	Z37	X38	Y38	Z38	X39	Y39	Z39	X40	Y40	Z40	X41	Y41	Z41	X42	Y42	Z42	X43	Y43	Z43	X44	Y44	Z44	X45	Y45	Z45	X46	Y46	Z46	X47	Y47	Z47	X48	Y48	Z48	X49	Y49	Z49	X50	Y50	Z50	X51	Y51	Z51	

171	0.70833	-310.09	1111.8	314.41	-405.17	1342.5	473.11	-430.87	1354.5	180.36	-356.61	1632.3	325.5	-346.38	935.73	425.87	-345.41	931.26	216.71	-555.83	978.63	377.66	-564.18	982.83	304.37	-420.58	820.13	513.32	-469.31	840.65	133.61	-440.89	983.16	487.54	-471.35	980.81	156.58	-588.66	935.09	337.21	-422.68	608.8	481.57	-375.76	530.91	435.05	-444.38	523.6	459.86	-357.98	616.18	456.83	-434.54	446.13	436.77	-460.13	442.93	295.85	-555.34	259.98	424.48	-501.73	167.3	395.74	-564.53	187.62	412.09	-487.92	233.82	414.66	-572.8	93.082	393.76	-566.87	106.9	309.14	-637.61	79.223	342.47	-625.54	47.159	313.97	-632.7	47.805	378.02	-469.42	39.893	410.62	-442.35	33.152	302.25	-390.69	59.348	355.66	-378.05	613.79	145.29	-274.9	576.97	131.56	-334.06	535.07	162.63	-326.13	656.69	118.56	-259.98	494.35	140.32	-229.99	499.33	277.66	-390.04	364.31	170.53	-356.48	258.55	173.89	-415.65	298.38	188.59	-336.41	330.38	156.8	-432.14	181.41	199.41	-407.01	174.58	278.04	-492.45	173.51	245.73	-487.83	148.64	280.27	-502.96	144.5	220.46	-363.88	68.711	167.84	-321.34	76.449	268.6	-268.91	66.12	212.99	-492.95	1407.7	336.51	-566.85	1155.2	343.64
172	0.7125	-304.53	1112.6	314.57	-399.71	1343.2	473.17	-425.54	1355	180.43	-351.29	1632.7	325.44	-341.36	936.2	426.19	-339.61	932.1	217.16	-550.39	979.08	377.09	-558.47	983.44	303.78	-416.31	820.07	513.08	-462.76	841.74	133.12	-435.95	983.47	487.37	-465.34	981.59	156.41	-583.2	935.72	336.42	-420.58	608.95	481.56	-374.34	530.51	435.27	-443.09	523.95	459.91	-355.67	615.61	457.03	-433.97	446.31	436.88	-459.6	443.2	295.81	-555.15	260.37	424.35	-501.65	167.64	395.73	-564.4	188.02	411.95	-487.77	234.14	414.68	-572.62	93.385	393.64	-566.66	107.18	309.01	-637.45	79.633	342.28	-625.38	47.55	313.89	-632.61	48.24	377.9	-469.39	39.896	410.57	-442.26	33.146	302.26	-390.59	59.249	355.67	-371.33	614.51	145.58	-267.94	577.93	132.55	-327.25	535.92	163.29	-319.37	657.46	119.02	-252.56	495.47	141.49	-223.71	500.59	278.72	-379.33	361.64	170.47	-342.72	256.93	173.87	-403.03	294.99	188.23	-324.67	329.3	157.03	-416.33	177.52	198.76	-391.18	171.23	277.45	-476.58	167.75	244.88	-471.22	142.93	279.37	-486.15	138.42	219.59	-344.72	66.828	167.11	-302.5	75.778	267.98	-249.74	67.023	212.42	-487.44	1407.9	336.56	-561.25	1155.5	343.84
173	0.71667	-298.97	1113.4	314.73	-394.25	1343.7	473.22	-420.2	1355.3	180.49	-345.97	1632.9	325.36	-336.33	936.57	426.49	-333.79	932.82	217.58	-544.97	979.44	376.47	-552.76	983.96	303.15	-412.03	819.97	512.84	-456.19	842.75	132.59	-431.01	983.7	487.17	-459.31	982.24	156.2	-577.73	936.25	335.58	-418.48	609.09	481.56	-372.92	530.11	435.5	-441.78	524.28	459.96	-353.37	615.03	457.24	-433.38	446.49	437	-459.01	443.44	295.79	-554.95	260.77	424.22	-501.54	167.97	395.72	-564.25	188.43	411.8	-487.6	234.47	414.7	-572.44	93.691	393.52	-566.46	107.47	308.88	-637.29	80.053	342.08	-625.22	47.951	313.8	-632.51	48.682	377.77	-469.37	39.898	410.51	-442.16	33.14	302.27	-390.49	59.148	355.68	-364.72	615.11	145.87	-261.12	578.73	133.57	-320.6	536.63	163.95	-312.7	658.11	119.52	-245.3	496.46	142.67	-217.59	501.67	279.81	-368.6	358.9	170.39	-328.93	255.34	173.82	-390.36	291.58	187.86	-312.95	328.21	157.24	-400.4	173.7	198.08	-375.24	167.93	276.82	-460.53	162.08	244.01	-454.43	137.33	278.45	-469.17	132.46	218.69	-325.54	65.1	166.34	-283.65	75.233	267.32	-230.62	68.05	211.79	-481.93	1408.1	336.61	-555.65	1155.6	344.04
174	0.72083	-293.39	1114.1	314.89	-388.77	1344.2	473.28	-414.84	1355.6	180.55	-340.65	1633.1	325.26	-331.28	936.83	426.76	-327.96	933.42	217.97	-539.57	979.71	375.82	-547.05	984.38	302.48	-407.72	819.84	512.61	-449.58	843.66	132.03	-426.08	983.83	486.94	-453.25	982.77	155.95	-572.27	936.69	334.71	-416.37	609.21	481.58	-371.49	529.71	435.75	-440.45	524.62	460.02	-351.06	614.44	457.47	-432.77	446.67	437.14	-458.33	443.66	295.78	-554.73	261.16	424.1	-501.41	168.3	395.72	-564.09	188.85	411.66	-487.41	234.78	414.74	-572.25	94	393.4	-566.26	107.75	308.77	-637.12	80.482	341.89	-625.05	48.363	313.7	-632.41	49.131	377.63	-469.34	39.897	410.45	-442.04	33.134	302.28	-390.38	59.045	355.69	-358.22	615.6	146.18	-254.44	579.37	134.6	-314.1	537.21	164.61	-306.12	658.62	120.05	-238.18	497.31	143.85	-211.65	502.56	280.94	-357.85	356.13	170.32	-315.13	253.81	173.77	-377.64	288.17	187.49	-301.25	327.11	157.44	-384.38	169.96	197.39	-359.2	164.7	276.17	-444.31	156.5	243.12	-437.48	131.84	277.52	-452.02	126.63	217.78	-306.35	63.54	165.54	-264.81	74.821	266.62	-211.56	69.207	211.12	-476.4	1408.2	336.65	-550.05	1155.7	344.22
175	0.725	-287.81	1114.7	315.06	-383.27	1344.6	473.33	-409.46	1355.8	180.6	-335.33	1633.2	325.15	-326.22	936.98	427.01	-322.12	933.9	218.33	-534.18	979.89	375.13	-541.34	984.7	301.78	-403.39	819.67	512.39	-442.95	844.49	131.44	-421.16	983.87	486.69	-447.16	983.18	155.67	-566.8	937.03	333.8	-414.24	609.32	481.61	-370.04	529.29	436.01	-439.11	524.94	460.08	-348.76	613.85	457.71	-432.14	446.84	437.29	-457.58	443.85	295.79	-554.49	261.56	423.98	-501.25	168.63	395.73	-563.92	189.26	411.52	-487.19	235.09	414.79	-572.07	94.311	393.28	-566.06	108.02	308.66	-636.94	80.92	341.69	-624.89	48.786	313.59	-632.3	49.585	377.49	-469.32	39.894	410.4	-441.91	33.126	302.29	-390.28	58.941	355.7	-351.82	615.95	146.48	-247.88	579.86	135.66	-307.74	537.64	165.25	-299.62	658.99	120.61	-231.19	498.02	145.03	-205.85	503.26	282.09	-347.08	353.33	170.24	-301.35	252.33	173.71	-364.89	284.78	187.12	-289.59	326.02	157.63	-368.27	166.33	196.68	-343.08	161.57	275.5	-427.92	151.05	242.22	-420.39	126.5	276.59	-434.73	120.96	216.86	-287.18	62.16	164.71	-246.01	74.551	265.89	-192.59	70.501	210.41	-470.86	1408.2	336.69	-544.46	1155.7	344.4
176	0.72917	-282.22	1115.2	315.22	-377.76	1344.8	473.38	-404.07	1355.9	180.65	-330.02	1633.3	325.03	-321.13	937.02	427.23	-316.25	934.24	218.66	-528.81	979.98	374.41	-535.63	984.92	301.05	-399.05	819.47	512.18	-436.3	845.22	130.82	-416.23	983.81	486.41	-441.04	983.48	155.37	-561.33	937.27	332.85	-412.09	609.42	481.65	-368.57	528.88	436.29	-437.73	525.25	460.15	-346.45	613.25	457.95	-431.48	447.01	437.47	-456.73	444.01	295.82	-554.22	261.96	423.87	-501.06	168.96	395.76	-563.73	189.68	411.37	-486.94	235.39	414.86	-571.88	94.625	393.17	-565.85	108.3	308.55	-636.75	81.368	341.5	-624.72	49.219	313.48	-632.2	50.044	377.34	-469.3	39.889	410.35	-441.77	33.115	302.31	-390.17	58.835	355.7	-345.52	616.18	146.77	-241.44	580.18	136.73	-301.51	537.93	165.87	-293.21	659.23	121.2	-224.34	498.59	146.21	-200.2	503.77	283.28	-336.31	350.51	170.16	-287.58	250.93	173.63	-352.12	281.42	186.75	-277.97	324.94	157.8	-352.11	162.82	195.97	-326.9	158.55	274.83	-411.4	145.73	241.33	-403.17	121.32	275.67	-417.33	115.46	215.93	-268.04	60.97	163.87	-227.26	74.429	265.15	-173.73	71.939	209.67	-465.3	1408.1	336.73	-538.87	1155.7	344.57
177	0.73333	-276.62	1115.6	315.38	-372.22	1345	473.41	-398.66	1355.9	180.68	-324.7	1633.2	324.88	-316.03	936.94	427.42	-310.36	934.47	218.96	-523.46	979.98	373.66	-529.91	985.04	300.29	-394.69	819.23	512	-429.61	845.84	130.18	-411.3	983.66	486.1	-434.88	983.66	155.05	-555.87	937.41	331.87	-409.92	609.49	481.71	-367.08	528.45	436.57	-436.33	525.56	460.22	-344.13	612.65	458.21	-430.78	447.18	437.65	-455.78	444.14	295.88	-553.93	262.36	423.77	-500.85	169.28	395.8	-563.53	190.1	411.23	-486.66	235.69	414.94	-571.68	94.942	393.06	-565.62	108.58	308.46	-636.56	81.826	341.31	-624.55	49.664	313.35	-632.09	50.508	377.19	-469.28	39.883	410.31	-441.63	33.103	302.32	-390.07	58.727	355.71	-339.3	616.28	147.04	-235.11	580.35	137.8	-295.41	538.07	166.46	-286.86	659.34	121.81	-217.6	499.01	147.37	-194.69	504.09	284.49	-325.53	347.68	170.08	-273.85	249.6	173.55	-339.33	278.11	186.38	-266.39	323.88	157.96	-335.9	159.44	195.25	-310.68	155.64	274.16	-394.77	140.57	240.44	-385.86	116.31	274.75	-399.83	110.15	215.02	-248.95	59.978	163.03	-208.6	74.465	264.41	-154.98	73.529	208.93	-459.74	1407.9	336.75	-533.28	1155.6	344.72
178	0.7375	-271.02	1116	315.54	-366.67	1345.1	473.44	-393.23	1355.8	180.71	-319.38	1633.1	324.72	-310.9	936.74	427.59	-304.45	934.57	219.24	-518.11	979.89	372.88	-524.18	985.06	299.5	-390.33	818.96	511.83	-422.9	846.36	129.52	-406.37	983.41	485.77	-428.68	983.73	154.7	-550.39	937.46	330.86	-407.71	609.55	481.79	-365.54	528.02	436.87	-434.88	525.85	460.29	-341.79	612.04	458.48	-430.05	447.33	437.86	-454.74	444.25	295.96	-553.61	262.77	423.66	-500.61	169.59	395.86	-563.31	190.53	411.09	-486.35	235.97	415.04	-571.49	95.261	392.95	-565.39	108.85	308.37	-636.36	82.293	341.13	-624.38	50.12	313.23	-631.97	50.978	377.04	-469.27	39.875	410.27	-441.49	33.088	302.34	-389.97	58.619	355.71	-333.16	616.26	147.29	-228.88	580.37	138.87	-289.41	538.06	167.01	-280.58	659.31	122.44	-210.97	499.3	148.51	-189.3	504.23	285.73	-314.77	344.86	170	-260.17	248.36	173.47	-326.54	274.86	186.03	-254.88	322.85	158.12	-319.68	156.21	194.54	-294.44	152.88	273.49	-378.05	135.58	239.57	-368.49	111.5	273.85	-382.26	105.04	214.11	-229.94	59.193	162.21	-190.03	74.665	263.67	-136.39	75.275	208.19	-454.16	1407.7	336.78	-527.7	1155.4	344.87
179	0.74167	-265.4	1116.2	315.7	-361.09	1345.1	473.46	-387.79	1355.6	180.73	-314.05	1632.9	324.55	-305.76	936.43	427.73	-298.51	934.55	219.48	-512.76	979.7	372.07	-518.44	984.99	298.68	-385.96	818.66	511.69	-416.16	846.77	128.85	-401.43	983.07	485.41	-422.44	983.7	154.35	-544.91	937.42	329.82	-405.46	609.59	481.88	-363.96	527.59	437.18	-433.38	526.12	460.37	-339.42	611.41	458.75	-429.27	447.48	438.09	-453.59	444.32	296.07	-553.27	263.17	423.56	-500.33	169.89	395.94	-563.07	190.96	410.95	-486.01	236.23	415.17	-571.29	95.583	392.85	-565.13	109.14	308.29	-636.14	82.77	340.96	-624.21	50.588	313.09	-631.86	51.453	376.89	-469.25	39.864	410.24	-441.34	33.07	302.36	-389.87	58.509	355.72	-327.09	616.1	147.49	-222.74	580.24	139.93	-283.51	537.91	167.51	-274.35	659.16	123.08	-204.45	499.45	149.63	-184.04	504.19	286.99	-304.02	342.06	169.92	-246.57	247.21	173.38	-313.76	271.68	185.69	-243.44	321.84	158.26	-303.46	153.14	193.85	-278.23	150.26	272.84	-361.27	130.77	238.71	-351.08	106.89	272.97	-364.65	100.14	213.23	-211.04	58.617	161.4	-171.61	75.035	262.95	-117.96	77.183	207.47	-448.58	1407.4	336.79	-522.12	1155.1	345
